# xmcd
#
# Track frame offsets:
#	225
#	12396
#	23237
#	35561
#	45414
#	58696
#	68250
#	79845
#	92232
#	103713
#	114810
#	125435
#	137900
#	150012
#	164132
#
# Disc length: 2353 seconds
#
# Revision: 0
# Processed by: cddbd v1.5.2PL0 Copyright (c) Steve Scherf et al.
# Submitted via: EasyCDDAExtractor 11.1.0.1
#
DISCID=b9092e0f
DTITLE=Guy Mitchell - Music Music Music
DYEAR=2003
DGENRE=easy Listening
TTITLE0=The Rovin' Kind
TTITLE1=Singing The Blues
TTITLE2=My Truly Truly Fair
TTITLE3=Rock-A-Billy
TTITLE4=She Wears Red Feathers
TTITLE5=Knee Deep In The Blues
TTITLE6=Pretty Little Black Eyed Sue
TTITLE7=Music Music Music
TTITLE8=Heartaches By The Number
TTITLE9=Cloud Lucky Seven
TTITLE10=Sippin' Soda
TTITLE11=Side By Side
TTITLE12=Chick-A-Boom
TTITLE13=Sparrow In The Tree Top
TTITLE14=There's A Pawnshop On A Corner In Pittsburgh Pennsylvania
EXTD=
EXTT0=
EXTT1=
EXTT2=
EXTT3=
EXTT4=
EXTT5=
EXTT6=
EXTT7=
EXTT8=
EXTT9=
EXTT10=
EXTT11=
EXTT12=
EXTT13=
EXTT14=
PLAYORDER=
